<?xml version="1.0" encoding="utf-8"?>
<!-- Generator: Adobe Illustrator 18.1.1, SVG Export Plug-In . SVG Version: 6.00 Build 0)  -->
<!DOCTYPE svg PUBLIC "-//W3C//DTD SVG 1.1//EN" "http://www.w3.org/Graphics/SVG/1.1/DTD/svg11.dtd">
<svg version="1.1" id="Layer_1" xmlns="http://www.w3.org/2000/svg" xmlns:xlink="http://www.w3.org/1999/xlink" x="0px" y="0px"
	 viewBox="0 0 650 580" enable-background="new 0 0 650 580" xml:space="preserve">
<g>
	<path id="docker_4_" fill-rule="evenodd" clip-rule="evenodd" fill="#394D54" d="M441.5,463.3c10.7-9.2,21.5-18.4,32.2-27.7
		c3.7-3.2,7.7-6.4,11.3-9.8c-2.9-3.7-7.8-6.3-11.9-7.9c-8.3-3.2-16.6-2.1-24.2,2.3c-10,5.8-14.3,15-13.9,26.5
		c0.1,4.5,1.4,8.9,3.8,12.7C439.5,460.8,440.5,462.1,441.5,463.3 M453.9,472c5.3,1.8,11.3,1.6,16.7,0.6c2.8-1.2,9.8-4.3,12.4-3.8
		l0.4,0.1l0.4,0.2c1.6,0.8,3.1,1.9,3.9,3.5c1.9,3.8,1,7.6-2.7,9.7l-1.2,0.7c-13.7,7.9-28.3,6.8-42-0.6c-6.5-3.5-11.5-8.8-15.2-15.2
		l-0.9-1.5c-8.8-15.3-7.6-31.3,2.3-45.8c3.4-5,7.9-8.9,13.2-11.9l2-1.1c12.9-7.5,26.8-7,40.1-0.4c7.1,3.5,12.9,8.8,16.9,15.7
		l0.7,1.2c2.9,5-0.9,9.4-4.7,12.4c-4.5,3.5-9,7.6-13.3,11.4C473.1,455.4,463.5,463.8,453.9,472z M556.7,402.6h1.4
		c4.3,0,7.2,2.9,7.2,7.2c0,6-5.7,7.5-10.7,7.5c-6.5,0-12.7,3.9-17.2,8.3c-5.6,5.5-8,12.6-8,20.3v35c0,4-2.5,7.2-6.7,7.2h-1.1
		c-4.2,0-6.7-3.2-6.7-7.2v-37c0-14.2,6.9-25.8,18.5-34C540.4,405.2,548.3,402.6,556.7,402.6z M376.4,427.5
		c5.6-5.6,11.3-11.2,17-16.8c1.6-1.5,7.6-8.1,10-8.1h2.6l0.3,0.1c3.3,0.7,5.8,2.8,5.8,6.3v1.4c0,2.4-2.8,5.2-4.4,6.9
		c-3.3,3.5-6.8,6.9-10.2,10.4l-17.5,17.7c7.5,7.5,15,15.1,22.5,22.7c2.1,2.1,4.1,4.2,6.2,6.3c0.7,0.8,1.8,1.7,2.4,2.7
		c0.6,1,1,2.1,1,3.3v1.5l-0.1,0.3c-0.8,3.3-2.9,6-6.6,6h-1.2c-2.4,0-5.1-2.7-6.7-4.3c-3.4-3.2-6.6-6.5-10-9.8l-11.1-10.9v17.4
		c0,4-2.5,7.2-6.7,7.2h-1.1c-4.2,0-6.7-3.2-6.7-7.2v-98.2c0-4,2.5-7.2,6.7-7.2h1.1c4.2,0,6.7,3.2,6.7,7.2V427.5z M329.5,417.7
		c-2.2-1-6.3-1.4-8.6-1.5c-12.1-0.5-20.8,6.4-26,17c-1.8,3.7-2.6,7.6-2.6,11.6c0,12.4,6.5,21.1,17.6,26.4c4,1.9,9.3,2.3,13.7,2.3
		c3.9,0,9.4-2.4,12.8-4l0.6-0.3h2.7l0.3,0.1c3.3,0.7,5.8,2.8,5.8,6.3v1.4c0,8.8-16.1,10.8-22.2,11.3c-21.7,1.5-37.9-10.4-44.1-31.1
		c-1.1-3.6-1.6-7.2-1.6-10.9v-2.9c0-15.7,7.8-28.1,21.2-36.1c6.3-3.7,13.2-5.6,20.4-5.6h2.9c7.7,0,14.8,2.2,21.2,6.5l0.5,0.4
		l0.3,0.5c0.7,1.1,1.3,2.5,1.3,3.8v1.4c0,3.7-2.8,5.7-6.1,6.3l-0.3,0h-0.9C336.3,420.8,331.4,418.6,329.5,417.7z M197.5,445.2
		c0,11,5.4,19.1,14.7,24.8c4.4,2.7,9.2,3.9,14.3,3.9c10.9,0,18.9-5.5,24.5-14.7c2.7-4.4,3.9-9.2,3.9-14.3c0-10.2-4.9-18-13.3-23.7
		c-4.6-3.1-9.8-4.7-15.3-4.7c-12.1,0-20.8,6.1-26.1,17C198.3,437.2,197.5,441.1,197.5,445.2z M224.8,402.1h2
		c16.8,0,29.5,8.1,37.6,22.8c3.2,5.9,5,12.2,5,18.9v2.9c0,15.7-7.7,28.2-21.3,36.1c-6.3,3.7-13.2,5.6-20.4,5.6h-2.9
		c-15.7,0-28.2-7.8-36.1-21.2c-3.7-6.3-5.6-13.2-5.6-20.4v-2.9c0-15.7,7.8-28.1,21.2-36.1C210.6,403.9,217.5,402.1,224.8,402.1z
		 M102.8,445.2c0,11.3,5.5,19.8,15.4,25.3c4,2.2,8.4,3.4,13,3.4c11.1,0,19.4-5.2,25.1-14.7c2.6-4.4,3.9-9.2,3.9-14.3
		c0-9.8-4.7-17.5-12.6-23.2c-4.8-3.5-10.2-5.2-16.1-5.2c-12.1,0-20.8,6.1-26.1,17C103.6,437.2,102.8,441.1,102.8,445.2z
		 M160.1,412.9v-30.6c0-4,2.5-7.2,6.7-7.2h1.2c4.2,0,6.7,3.2,6.7,7.2v64.3c0,15.7-7.8,28.2-21.3,36.1c-6.3,3.7-13.2,5.6-20.4,5.6
		H130c-15.7,0-28.2-7.8-36.1-21.2c-3.7-6.3-5.6-13.2-5.6-20.4v-2.9c0-15.7,7.8-28.2,21.2-36.1c6.3-3.7,13.2-5.6,20.4-5.6h2.9
		C143.5,402.1,152.5,406.2,160.1,412.9z"/>
	<path id="outline_7_" fill-rule="evenodd" clip-rule="evenodd" fill="#394D54" d="M363.4,173.4h42.7V217h21.6c10,0,20.2-1.8,29.7-5
		c4.6-1.6,9.8-3.8,14.4-6.5c-6-7.9-9.1-17.8-10-27.6c-1.2-13.3,1.5-30.7,10.5-41.1l4.5-5.2l5.3,4.3c13.5,10.8,24.8,25.9,26.8,43.2
		c16.2-4.8,35.2-3.6,49.5,4.6l5.9,3.4l-3.1,6c-12.1,23.6-37.4,30.9-62.1,29.6c-37,92.1-117.4,135.7-215,135.7
		c-50.4,0-96.7-18.8-123-63.6l-0.4-0.7l-3.8-7.8c-8.9-19.7-11.9-41.3-9.9-62.8l0.6-6.5h36.5v-43.6h42.7v-42.7h85.4V88h51.2V173.4z"
		/>
	<g id="body_colors_8_">
		<path fill="#00A9D9" d="M501.7,189.5c2.9-22.2-13.8-39.7-24.1-48c-11.9,13.8-13.7,49.8,4.9,65c-10.4,9.3-32.4,17.6-54.8,17.6H154
			c-2.2,23.5,1.9,45.1,11.3,63.6l3.1,5.7c2,3.3,4.1,6.6,6.5,9.7c0,0,0,0,0,0c11.2,0.7,21.6,1,31.1,0.8c0,0,0,0,0,0
			c18.6-0.4,33.9-2.6,45.4-6.6c1.7-0.6,3.6,0.3,4.2,2c0.6,1.7-0.3,3.6-2,4.2c-1.5,0.5-3.1,1-4.8,1.5c0,0,0,0,0,0
			c-9.1,2.6-18.8,4.3-31.4,5.1c0.7,0-0.8,0.1-0.8,0.1c-0.4,0-1,0.1-1.4,0.1c-4.9,0.3-10.3,0.3-15.7,0.3c-6,0-11.8-0.1-18.4-0.4
			l-0.2,0.1c22.8,25.6,58.4,41,103.1,41c94.6,0,174.8-41.9,210.3-136c25.2,2.6,49.4-3.8,60.4-25.3
			C537.3,179.8,514.7,183,501.7,189.5z"/>
		<path fill="#24B7EA" d="M501.7,189.5c2.9-22.2-13.8-39.7-24.1-48c-11.9,13.8-13.7,49.8,4.9,65c-10.4,9.3-32.4,17.6-54.8,17.6
			H170.2c-1.1,35.9,12.2,63.2,35.8,79.7c0,0,0,0,0,0c18.6-0.4,33.9-2.6,45.4-6.6c1.7-0.6,3.6,0.3,4.2,2c0.6,1.7-0.3,3.6-2,4.2
			c-1.5,0.5-3.1,1-4.8,1.5c0,0,0,0,0,0c-9.1,2.6-19.7,4.6-32.2,5.3c0,0-0.3-0.3-0.3-0.3c32.2,16.5,78.9,16.5,132.4-4.1
			c60-23,115.8-67,154.8-117.2C502.8,189,502.3,189.3,501.7,189.5z"/>
		<path fill="#008AB7" d="M154.6,252.7c1.7,12.6,5.4,24.3,10.8,35.1l3.1,5.7c2,3.3,4.1,6.6,6.5,9.7c11.3,0.7,21.6,1,31.1,0.8
			c18.6-0.4,33.9-2.6,45.4-6.6c1.7-0.6,3.6,0.3,4.2,2c0.6,1.7-0.3,3.6-2,4.2c-1.5,0.5-3.1,1-4.8,1.5c0,0,0,0,0,0
			c-9.1,2.6-19.6,4.4-32.2,5.2c-0.4,0-1.2,0-1.6,0.1c-4.9,0.3-10.2,0.4-15.7,0.4c-6,0-12.1-0.1-18.6-0.4c22.8,25.6,58.7,41,103.4,41
			c81,0,151.4-30.7,192.3-98.6H154.6z"/>
		<path fill="#039AC5" d="M172.7,252.7c4.8,22.1,16.5,39.4,33.4,51.2c18.6-0.4,33.9-2.6,45.4-6.6c1.7-0.6,3.6,0.3,4.2,2
			c0.6,1.7-0.3,3.6-2,4.2c-1.5,0.5-3.1,1-4.8,1.5c0,0,0,0,0,0c-9.1,2.6-19.8,4.4-32.4,5.2c32.2,16.5,78.7,16.3,132.2-4.3
			c32.4-12.4,63.5-30.9,91.5-53.2H172.7z"/>
	</g>
	<g display="none">
		<path display="inline" fill="#394D54" d="M199.4,310.5c5.5,0,10.7-0.1,15.6-0.4c0.4,0,0.8-0.1,1.3-0.1c0,0,0,0,0,0
			c12.6-0.8,23.4-2.5,32.5-5c0,0,0,0,0,0c1.7-0.5,3.2-1,4.8-1.5c1.7-0.6,2.6-2.5,2-4.2c-0.6-1.7-2.5-2.6-4.2-2
			c-11.5,4-26.7,6.2-45.4,6.6c0,0,0,0,0,0c-9.5,0.2-19.9,0-31.1-0.8c0,0,0,0,0,0c-0.6,0-1.1-0.1-1.7-0.1c-1.8-0.1-3.4,1.2-3.5,3.1
			c-0.1,1.8,1.2,3.4,3.1,3.5c2.3,0.2,4.6,0.3,6.8,0.4c0.4,0,0.7,0,1,0l0,0C187.2,310.3,193.5,310.5,199.4,310.5z"/>
	</g>
	<g id="Containers_8_">
		<path fill-rule="evenodd" clip-rule="evenodd" fill="#00ABD2" d="M222.2,183.6h2.9v30.8h-2.9V183.6z M216.6,183.6h3v30.8h-3V183.6
			z M211,183.6h3v30.8h-3V183.6z M205.4,183.6h3v30.8h-3V183.6z M199.8,183.6h3v30.8h-3V183.6z M194.3,183.6h2.9v30.8h-2.9V183.6z
			 M191.2,180.5h37v37h-37V180.5z"/>
		<path fill-rule="evenodd" clip-rule="evenodd" fill="#00ABD2" d="M264.9,140.9h2.9v30.8h-2.9V140.9z M259.3,140.9h3v30.8h-3V140.9
			z M253.7,140.9h3v30.8h-3V140.9z M248.1,140.9h3v30.8h-3V140.9z M242.5,140.9h3v30.8h-3V140.9z M237,140.9h2.9v30.8H237V140.9z
			 M233.9,137.8h37v37h-37V137.8z"/>
		<path fill-rule="evenodd" clip-rule="evenodd" fill="#20C1EE" d="M264.9,183.6h2.9v30.8h-2.9V183.6z M259.3,183.6h3v30.8h-3V183.6
			z M253.7,183.6h3v30.8h-3V183.6z M248.1,183.6h3v30.8h-3V183.6z M242.5,183.6h3v30.8h-3V183.6z M237,183.6h2.9v30.8H237V183.6z
			 M233.9,180.5h37v37h-37V180.5z"/>
		<path fill-rule="evenodd" clip-rule="evenodd" fill="#00ABD2" d="M307.6,183.6h2.9v30.8h-2.9V183.6z M302,183.6h3v30.8h-3V183.6z
			 M296.4,183.6h3v30.8h-3V183.6z M290.8,183.6h3v30.8h-3V183.6z M285.1,183.6h3v30.8h-3V183.6z M279.7,183.6h2.9v30.8h-2.9V183.6z
			 M276.6,180.5h37v37h-37V180.5z"/>
		<path fill-rule="evenodd" clip-rule="evenodd" fill="#20C1EE" d="M307.6,140.9h2.9v30.8h-2.9V140.9z M302,140.9h3v30.8h-3V140.9z
			 M296.4,140.9h3v30.8h-3V140.9z M290.8,140.9h3v30.8h-3V140.9z M285.1,140.9h3v30.8h-3V140.9z M279.7,140.9h2.9v30.8h-2.9V140.9z
			 M276.6,137.8h37v37h-37V137.8z"/>
		<path fill-rule="evenodd" clip-rule="evenodd" fill="#20C1EE" d="M350.3,183.6h2.9v30.8h-2.9V183.6z M344.7,183.6h3v30.8h-3V183.6
			z M339.1,183.6h3v30.8h-3V183.6z M333.4,183.6h3v30.8h-3V183.6z M327.8,183.6h3v30.8h-3V183.6z M322.4,183.6h2.9v30.8h-2.9V183.6z
			 M319.3,180.5h37v37h-37V180.5z"/>
		<path fill-rule="evenodd" clip-rule="evenodd" fill="#00ABD2" d="M350.3,140.9h2.9v30.8h-2.9V140.9z M344.7,140.9h3v30.8h-3V140.9
			z M339.1,140.9h3v30.8h-3V140.9z M333.4,140.9h3v30.8h-3V140.9z M327.8,140.9h3v30.8h-3V140.9z M322.4,140.9h2.9v30.8h-2.9V140.9z
			 M319.3,137.8h37v37h-37V137.8z"/>
		<path fill-rule="evenodd" clip-rule="evenodd" fill="#20C1EE" d="M350.3,98.2h2.9V129h-2.9V98.2z M344.7,98.2h3V129h-3V98.2z
			 M339.1,98.2h3V129h-3V98.2z M333.4,98.2h3V129h-3V98.2z M327.8,98.2h3V129h-3V98.2z M322.4,98.2h2.9V129h-2.9V98.2z M319.3,95.1
			h37v37h-37V95.1z"/>
		<path fill-rule="evenodd" clip-rule="evenodd" fill="#00ABD2" d="M393,183.6h2.9v30.8H393V183.6z M387.4,183.6h3v30.8h-3V183.6z
			 M381.7,183.6h3v30.8h-3V183.6z M376.1,183.6h3v30.8h-3V183.6z M370.5,183.6h3v30.8h-3V183.6z M365,183.6h2.9v30.8H365V183.6z
			 M362,180.5h37v37h-37V180.5z"/>
	</g>
	<path fill-rule="evenodd" clip-rule="evenodd" fill="#D3ECF0" d="M268.6,277.5c5.6,0,10.2,4.6,10.2,10.2c0,5.6-4.6,10.2-10.2,10.2
		c-5.6,0-10.2-4.6-10.2-10.2C258.4,282.1,262.9,277.5,268.6,277.5"/>
	<path fill-rule="evenodd" clip-rule="evenodd" fill="#394D54" d="M268.6,280.4c0.9,0,1.8,0.2,2.6,0.5c-0.9,0.5-1.5,1.5-1.5,2.6
		c0,1.6,1.3,3,3,3c1.1,0,2.1-0.6,2.6-1.6c0.4,0.9,0.6,1.8,0.6,2.8c0,4-3.3,7.3-7.3,7.3c-4,0-7.3-3.3-7.3-7.3
		C261.3,283.7,264.5,280.4,268.6,280.4"/>
	<path fill-rule="evenodd" clip-rule="evenodd" fill="#394D54" d="M88,256.3h223.6h27.7h223.6c-10.3-2.6-32.7-6.2-29-19.7
		c-18.8,21.8-64.1,15.3-75.6,4.5c-12.7,18.5-86.9,11.5-92.1-2.9c-16,18.7-65.5,18.7-81.5,0c-5.2,14.4-79.4,21.4-92.1,2.9
		c-11.4,10.7-56.8,17.2-75.6-4.5C120.7,250.2,98.3,253.7,88,256.3"/>
	<path fill="#BEDADF" d="M295.7,351.1c-25.3-12-39.2-28.3-46.9-46.1c-9.4,2.7-20.7,4.4-33.8,5.1c-4.9,0.3-10.1,0.4-15.6,0.4
		c-6.3,0-12.9-0.2-19.9-0.6c23.2,23.2,51.7,41,104.5,41.3C288,351.3,291.8,351.2,295.7,351.1z"/>
	<path fill="#D3ECF0" d="M258.2,321.4c-3.5-4.7-6.9-10.7-9.4-16.4c-9.4,2.7-20.7,4.4-33.8,5.1C224,315,236.9,319.5,258.2,321.4z"/>
</g>
</svg>
